<svg width="45" height="45" viewBox="0 0 45 45" fill="none" xmlns="http://www.w3.org/2000/svg">
<path d="M0 23C0 15.8203 5.8203 10 13 10H32C39.1797 10 45 15.8203 45 23V32C45 39.1797 39.1797 45 32 45H13C5.8203 45 0 39.1797 0 32V23Z" fill="#FABADA"/>
<path d="M34 11.5C34 17.8513 28.8513 23 22.5 23C16.1487 23 11 17.8513 11 11.5C11 5.14873 16.1487 0 22.5 0C28.8513 0 34 5.14873 34 11.5Z" fill="#FFEE01"/>
<path d="M30.9333 11.5C30.9333 16.1576 27.1576 19.9333 22.5 19.9333C17.8424 19.9333 14.0667 16.1576 14.0667 11.5C14.0667 6.8424 17.8424 3.06667 22.5 3.06667C27.1576 3.06667 30.9333 6.8424 30.9333 11.5Z" fill="#E5E4D7"/>
<path d="M23.228 16.12C22.596 16.12 22 16.024 21.44 15.832C20.88 15.632 20.384 15.344 19.952 14.968C19.52 14.592 19.184 14.14 18.944 13.612C18.704 13.076 18.584 12.472 18.584 11.8C18.584 11.184 18.7 10.616 18.932 10.096C19.164 9.576 19.488 9.124 19.904 8.74C20.328 8.356 20.82 8.06 21.38 7.852C21.948 7.636 22.564 7.528 23.228 7.528C23.532 7.528 23.832 7.552 24.128 7.6C24.424 7.64 24.712 7.704 24.992 7.792C25.272 7.872 25.528 7.972 25.76 8.092L25.172 9.232C24.892 9.096 24.584 8.996 24.248 8.932C23.92 8.86 23.58 8.824 23.228 8.824C22.748 8.824 22.308 8.896 21.908 9.04C21.508 9.176 21.156 9.376 20.852 9.64C20.556 9.904 20.324 10.22 20.156 10.588C19.996 10.948 19.916 11.352 19.916 11.8C19.916 12.288 20 12.72 20.168 13.096C20.336 13.472 20.568 13.792 20.864 14.056C21.168 14.312 21.52 14.508 21.92 14.644C22.328 14.772 22.764 14.836 23.228 14.836C23.468 14.836 23.7 14.82 23.924 14.788C24.148 14.756 24.364 14.708 24.572 14.644C24.788 14.58 24.988 14.504 25.172 14.416L25.772 15.556C25.532 15.668 25.272 15.768 24.992 15.856C24.72 15.936 24.432 16 24.128 16.048C23.832 16.096 23.532 16.12 23.228 16.12ZM17.48 13.336V12.208L23.084 12.232V13.348L17.48 13.336ZM17.48 11.584V10.468L23.084 10.48V11.596L17.48 11.584Z" fill="#B99C9C"/>
<path d="M7 19H38V29H7V19Z" fill="#FABADA"/>
<path d="M8 18H38V19H8V18Z" fill="#707070"/>
<path d="M27 31C27 33.2091 24.7614 35 22 35C19.2386 35 17 33.2091 17 31C17 28.7909 19.2386 27 22 27C24.7614 27 27 28.7909 27 31Z" fill="#FF7ABD"/>
<path d="M25 31C25 31.5523 24.5523 32 24 32C23.4477 32 23 31.5523 23 31C23 30.4477 23.4477 30 24 30C24.5523 30 25 30.4477 25 31Z" fill="#3D3D3D"/>
<path d="M21 31C21 31.5523 20.5523 32 20 32C19.4477 32 19 31.5523 19 31C19 30.4477 19.4477 30 20 30C20.5523 30 21 30.4477 21 31Z" fill="#3D3D3D"/>
</svg>
